<svg xmlns="http://www.w3.org/2000/svg" xmlns:xlink="http://www.w3.org/1999/xlink" width="1024" height="1024" viewBox="0 0 1024 1024">
  <defs>
    <linearGradient id="linear-gradient" x1="395.33526" y1="481.81377" x2="856.54644" y2="481.81377" gradientUnits="userSpaceOnUse">
      <stop offset="0.11373" stop-color="#0058ba"/>
      <stop offset="0.87059" stop-color="#002758"/>
    </linearGradient>
  </defs>
  <title>icon</title>
  <g id="hahli">
    <g>
      <polygon points="854.301 863.396 807.863 768.605 831 719 671.203 243.96 355.19 243.96 193 720 214.222 769.562 178.795 854.3 183.103 971.113 214.222 968.719 428.22 900.259 444.018 900.738 444.018 967.762 573.758 967.762 573.758 900.738 593.865 900.259 813.608 969.198 842.333 971.113 854.301 863.396"/>
      <polygon points="673.815 230.976 660.889 232.891 649.399 193.634 541.203 193.634 541.203 177.357 486.627 177.357 486.627 193.634 375.079 193.634 364.068 232.413 349.706 230.498 295 421 306.619 425.825 473.222 454.549 485.19 343.96 486.627 317.629 541.203 317.629 541.203 343.96 553.651 453.592 715.945 426.304 732 424 673.815 230.976" fill="#1e1e1e" fill-rule="evenodd"/>
      <path d="M821.26807,669.50507,787.756,508.16864l-20.58594-7.18115L673.81519,230.97632l42.12939,195.32721,2.39374-.47876L795.41595,671.42,682,691l-53.66541-28.67609L541.20331,478.96527,485.19037,481.359l-88.56751,180.9649L340,691,222.36041,671.42l-.47876-.47876L306.6192,425.82477l43.08685-195.32715L258.26611,501.46619,235.7652,505.7749,203.21069,669.50507q-32.07586,31.11831-7.18115,74.68389l18.1922,25.37342a146.0063,146.0063,0,0,1,0-52.66175q9.575-31.11831,27.76709-37.82073l-18.1922,89.525,125.90942-28.72461,42.60816,27.76709,31.11829,4.30872,31.11834,1.91491,18.671-30.63952L457.902,710.19824l22.02215-46.43811,31.93421-20,32.6961,20,22.97968,46.43811-15.79852,33.03327,15.31982,33.03326,34.94824-4.30865L633.122,767.6474l45.00183-24.41589,123.99451,26.33087-19.62848-89.525q45.00183,27.76713,25.37341,88.56751,21.06463-14.36234,28.24579-43.56567Q843.769,692.48474,821.26807,669.50507Z" fill="#121212" fill-rule="evenodd"/>
      <path d="M222.36039,670.9413V671.42l-.47875-.47875h.47875" fill="#363636" fill-rule="evenodd"/>
      <polygon points="541.203 478.965 541.203 343.96 485.19 343.96 485.19 481.359 479.924 663.76 544.555 663.76 541.203 478.965" fill="#1e1e1e" fill-rule="evenodd"/>
      <polyline points="795.416 671.42 659.932 720.252 567.534 710.198 628.335 662.324 795.416 671.42" fill="#1e1e1e" fill-rule="evenodd"/>
      <polyline points="222.36 671.42 222.36 670.941 396.623 662.324 457.902 710.198 358.802 719.294 222.36 671.42" fill="#1e1e1e" fill-rule="evenodd"/>
      <path d="M567.05545,776.26479l34.94826-4.30868q5.26616,26.80961-.47875,56.97042l-35.90573-9.57486q6.70239-22.02219,1.43622-42.60813v-.47875" fill="#0a0a0a" fill-rule="evenodd"/>
      <path d="M423.43251,771.95611l31.1183,1.915a85.06819,85.06819,0,0,0,3.35121,51.22552L425.34748,833.714q-8.61737-29.20335-1.915-61.75786" fill="#0a0a0a" fill-rule="evenodd"/>
      <polyline points="556.044 838.98 541.682 849.512 483.754 849.512 471.307 838.98 556.044 838.98" fill="#0a0a0a" fill-rule="evenodd"/>
      <path d="M813.60818,969.19828l-67.5031,54.57672-152.24-123.51573L545.512,858.60861,575.67283,831.799l278.62852,31.597q-75.64141,85.695-40.69317,105.80223" fill="#121212" fill-rule="evenodd"/>
      <path d="M428.21994,900.25927,271.67094,1023.775l-57.44918-55.05546q32.55453-10.05362-35.427-114.41961L450.72087,838.5014l27.28836,22.02218-49.78929,39.73569" fill="#121212" fill-rule="evenodd"/>
      <path d="M667.11277,902.17424v-.47874q28.24586-31.59705,117.77082-12.44733L759.989,971.11325v.47875l-.47876-.47875q-85.695-28.24584-92.39742-68.939" fill-rule="evenodd"/>
      <path d="M350.1848,888.76943q-.95746,28.24585-22.50091,51.22552-22.02221,22.97967-51.70428,29.20333l-31.1183-80.42885q56.01294-23.45841,105.32349,0" fill-rule="evenodd"/>
      <path d="M349.70607,230.49762l14.36229,1.91494,11.01109-38.77815H486.62661V177.3571h54.57671v16.27731h108.196l11.48983,39.25692,12.92607-1.915L767.17009,500.9875l20.586,7.18114,33.512,161.33643q22.50092,22.97967,14.841,55.5342-7.18114,29.20335-28.24584,43.56564l46.43809,94.79114-11.96858,107.7172-28.72459-1.915L746.10539,1023.775,593.86507,900.25927l-20.10721.47874v67.024H444.01846V900.738l-15.79852-.47874L271.67094,1023.775l-57.44918-55.05546-31.11833,2.39371-4.30865-116.81332,35.427-84.73753L196.02952,744.189q-24.8947-43.56558,7.18115-74.68392L235.7652,505.77493l22.50093-4.3087,91.43994-270.96861" fill="none" stroke="#060606" stroke-linecap="round" stroke-linejoin="round" stroke-width="0.41908"/>
      <polyline points="364.068 232.413 486.627 248.211 486.627 317.629 486.627 248.211 364.068 232.413" fill="#1e1e1e" fill-rule="evenodd"/>
      <polyline points="486.627 317.629 486.627 248.211 364.068 232.413" fill="none" stroke="#060606" stroke-linecap="round" stroke-linejoin="round" stroke-width="0.41908"/>
      <polyline points="541.203 193.634 541.203 248.211 660.889 232.891" fill="none" stroke="#060606" stroke-linecap="round" stroke-linejoin="round" stroke-width="0.41908"/>
      <line x1="541.20332" y1="248.2111" x2="541.20332" y2="317.62886" fill="none" stroke="#060606" stroke-linecap="round" stroke-linejoin="round" stroke-width="0.41908"/>
      <line x1="486.62661" y1="248.2111" x2="486.62661" y2="193.63441" fill="none" stroke="#060606" stroke-linecap="round" stroke-linejoin="round" stroke-width="0.41908"/>
    </g>
    <g>
      <polyline points="579.982 524.921 566.098 475.61 693.444 450.716 714.987 520.612 579.982 524.921" fill="#ffd200" stroke="#b79800" stroke-miterlimit="10" stroke-width="0.419" fill-rule="evenodd"/>
      <polyline points="445.933 524.921 309.97 520.612 331.514 450.716 458.86 478.483 445.933 524.921" fill="#ffd200" stroke="#b79800" stroke-miterlimit="10" stroke-width="0.419" fill-rule="evenodd"/>
    </g>
    <g>
      <polygon points="869.143 366.341 154.385 366.341 151.961 514.923 433.464 589.68 591.033 589.68 871.082 514.425 869.143 366.341" fill="#0057b9" fill-opacity="0.15294" fill-rule="evenodd"/>
      <polygon points="406.634 863.356 406.634 907.443 492.372 907.443 492.372 955.318 531.15 955.318 531.15 907.443 616.887 907.443 616.887 863.356 406.634 863.356" fill="#001c42" fill-rule="evenodd"/>
      <path d="M596.25879.7037l29.20333,6.70245A340.90057,340.90057,0,0,1,703.976,37.567a347.71365,347.71365,0,0,1,70.37524,50.268l21.06469,20.1072V319.54667L795,331H689L596.25879.7037" fill="#003f89" fill-rule="evenodd"/>
      <polygon points="631.728 240.511 393.229 240.511 369.824 331.547 653.218 331.547 631.728 240.511" fill="#003f89" fill-rule="evenodd"/>
      <polygon points="670.486 815.961 761 883.495 875.355 854.292 875.355 767.183 670.486 815.961" fill="#000e27" fill-rule="evenodd"/>
      <polygon points="148.645 767.183 148.645 854.292 264 883.495 312.342 799.258 148.645 767.183" fill="#000e27" fill-rule="evenodd"/>
      <path d="M124.65424,873.41l-4.74488,87.17377q5.74485,15.3198,21.54346,22.02216a86.43935,86.43935,0,0,0,40.21442,4.78747Q254.91491,971.116,329.59888,961.5412l78.03509-6.22363v-41.6507Z" fill="#001c42" fill-rule="evenodd"/>
      <polyline points="407.634 907.443 407.634 913.667 313.8 911.273 286.512 925.635 253 872.495 290.342 810.258 392.314 668.55 394 669 408.676 756.554 407.634 864.356 407.634 907.443" fill="#003f89" fill-rule="evenodd"/>
      <polygon points="880.621 360.347 855 360 854.78 380.347 856.695 503.384 857 523 882.536 519.075 880.621 360.347" fill="#003f89" fill-rule="evenodd"/>
      <polygon points="143.379 360.347 140.985 519.075 166 524 166.347 503.863 168.741 380.347 169 360 143.379 360.347" fill="#003f89" fill-rule="evenodd"/>
      <path d="M596.25879.7037Q697.75233,129.48562,718.817,319.54667L729,331H633l9.21813-11.45333L630.7283,241.51152,599,221,585,1,595.78.7037h.47875" fill="#00326e" fill-rule="evenodd"/>
      <polygon points="592.972 610.687 630.207 689.072 866 622 865.791 601.09 865.791 563.184 866 543 592.972 610.687" fill="#001a3e" fill-rule="evenodd"/>
      <polygon points="158.209 563.184 156.773 601.09 157 621 388 687 392 668 402.314 674.072 430.549 610.687 159 544 158.209 563.184" fill="#001a3e" fill-rule="evenodd"/>
      <path d="M595.78.70367V.225H427.74121a300.26439,300.26439,0,0,0-76.59894,23.45837,335.4916,335.4916,0,0,0-73.72644,45.00189l-48.353,39.73566-.95752,211.12573L219,331H390l-9.17566-11.45337,13.40485-78.03516H630.72827Z" fill="#0058ba" fill-rule="evenodd"/>
      <path d="M889.72832,319.54666H134.27168l-4.78745,237.45657,28.72461,7.18114L409.549,631.6872l7.18113,12.39368H607.26985l6.70241-12.39368,251.8189-67.50283,28.24582-7.18114ZM856.69507,503.384,590.09241,575.65868l-56.549-97.16934-.07363-.07363a24.53656,24.53656,0,0,0-42.38887.03263l-56.63727,97.22588L166.34742,503.86274l-14.36227-4.78744L154.37884,380.347H869.62109l1.915,118.72829Z" fill-rule="evenodd" fill="url(#linear-gradient)"/>
      <polyline points="596.259 0.704 595.78 0.704 595.78 0.225 596.259 0.225 596.259 0.704" fill="#00326e" fill-rule="evenodd"/>
      <path d="M896.86694,764V874.41l-280.97967,39.2569v41.17194l78.51385,6.70239q73.7265,9.57486,146.97412,25.85217a79.1195,79.1195,0,0,0,40.21448-3.83q16.27725-6.7024,22.02216-22.97968v-196.891Z" fill="#001c42" fill-rule="evenodd"/>
      <path d="M95.49346,760.94785V583.33413l61.2791,16.756L392.3142,668.07167,409.549,631.68718l7.18115,2.39372,67.98152-122.55824c2.5533-4.78743,6.53154-8.59664,11.2954-12.08856,10.21319-7.34077,21.25914-6.42281,32.749.59872L530,502l-.76525,128.251q-40.69317-4.78742-71.81148,29.20332L406.6765,758.55414l-14.3623-90.00371q1.43623,56.01294-7.18114,83.78L374,763,116.06832,701.99774l.47874,31.22552C116.2279,742.15979,109,757,95.49346,760.94785" fill="#0058ba" fill-rule="evenodd"/>
      <path d="M927.549,583.81287,927,584l-2,2-59,17v-3L658.495,659.933l-27.288,8.13868-17.23474-36.38447-6.70239,2.39368S537.85907,509.785,537.13184,508.57294a26.05616,26.05616,0,0,0-8.37586-8.54016V629.77222l87.13129,234.5841v49.31055l93.83368-2.39368L737.488,925.6355l33.512-53.1405-78.51391-55.53425L864.355,778.18256l33.512-13.88349h1.915l3.83,2.39368,24.41595-5.74494.4787-176.65618Z" fill="#002758" fill-rule="evenodd"/>
      <path d="M658.4954,659.933l207.29579-59.8429L927.549,583.81287q-13.88351,22.501-15.7985,100.05732l-212.562,52.66175Q659.45289,715.946,658.4954,659.933" fill="#003f89" fill-rule="evenodd"/>
      <polygon points="492.372 864.356 492.372 907.443 492.372 913.667 531.15 914.624 531.15 907.443 531.15 864.356 492.372 864.356" fill="#002758" fill-rule="evenodd"/>
      <polygon points="864.355 762.863 864.355 778.183 864.355 843.292 771 872.495 717.381 889.73 737.488 925.635 897.867 874.41 897.867 764.299 897.867 746.586 864.355 762.863" fill="#003f89" fill-rule="evenodd"/>
      <path d="M105.0683,680.99774l.47876,51.22553q-.47873,13.40478-10.05359,28.72454l24.41589,5.74494v193.891L125.65424,874.41,286.512,925.6355l20.10724-35.90576L252.99994,872.495,159.645,843.29163V778.18256l130.6969,32.0758,35.9057,7.18115,9.09613-4.30865q35.42706-21.06472,49.78931-60.80042Z" fill="#003472" fill-rule="evenodd"/>
      <path d="M669.0738,864.98767h-318.717l105.678-211.76243c22.51927-45.12517,84.84185-45.12517,107.36112,0Z" fill="#003472" fill-rule="evenodd"/>
      <path d="M478.66789,682.26764,403.47628,831.85938H620.52372L545.33211,682.26764C531.55847,654.86536,492.44153,654.86536,478.66789,682.26764Z" fill="#00020e" fill-rule="evenodd"/>
      <path d="M433.17751,818.15112H591.96484L538.0518,714.176c-10.90686-21.03466-41.02546-20.94648-51.809.15168Z" fill="#000e27" stroke="#000e27" stroke-miterlimit="10" stroke-width="0.419" fill-rule="evenodd"/>
      <path d="M795.41593,107.94221,774.35124,87.835A347.71365,347.71365,0,0,0,703.976,37.567,340.90057,340.90057,0,0,0,625.46212,7.40615L596.25879.7037" fill="none" stroke="#0070eb" stroke-linecap="round" stroke-linejoin="round" stroke-width="0.41908"/>
      <path d="M595.78.225H429.17743L394.22917,241.51152l-13.4048,78.03515H228.1053l.95749-211.12576,48.35307-39.73563a335.48609,335.48609,0,0,1,73.72643-45.00189A300.264,300.264,0,0,1,427.74119.225" fill="none" stroke="#0070eb" stroke-linecap="round" stroke-linejoin="round" stroke-width="0.41908"/>
      <line x1="119.90935" y1="960.58374" x2="119.90935" y2="766.69277" fill="none" stroke="#0070eb" stroke-linecap="round" stroke-linejoin="round" stroke-width="0.41908"/>
      <polyline points="95.493 760.948 95.493 583.334 156.773 600.09" fill="none" stroke="#0070eb" stroke-linecap="round" stroke-linejoin="round" stroke-width="0.41908"/>
      <polyline points="129.484 557.003 134.272 319.547 228.105 319.547" fill="none" stroke="#0070eb" stroke-linecap="round" stroke-linejoin="round" stroke-width="0.41908"/>
      <line x1="392.3142" y1="668.07167" x2="156.77256" y2="600.09014" fill="none" stroke="#0070eb" stroke-linecap="round" stroke-linejoin="round" stroke-width="0.41908"/>
      <line x1="718.81703" y1="319.54667" x2="795.41593" y2="319.54667" fill="none" stroke="#001c42" stroke-linecap="round" stroke-linejoin="round" stroke-width="0.41908"/>
      <line x1="642.21813" y1="319.54667" x2="718.81703" y2="319.54667" fill="none" stroke="#001c42" stroke-linecap="round" stroke-linejoin="round" stroke-width="0.41908"/>
      <line x1="795.41593" y1="319.54667" x2="795.41593" y2="107.94221" fill="none" stroke="#000e27" stroke-linecap="round" stroke-linejoin="round" stroke-width="0.41908"/>
      <polyline points="596.259 0.704 595.78 0.704 595.78 0.225 596.259 0.225 596.259 0.704" fill="none" stroke="#0070eb" stroke-linecap="round" stroke-linejoin="round" stroke-width="0.41908"/>
      <line x1="869.62112" y1="380.34703" x2="854.78009" y2="380.34703" fill="none" stroke="#000e27" stroke-linecap="round" stroke-linejoin="round" stroke-width="0.41908"/>
      <polyline points="865.791 564.184 894.037 557.003 889.728 319.547 795.416 319.547" fill="none" stroke="#000e27" stroke-linecap="round" stroke-linejoin="round" stroke-width="0.41908"/>
      <line x1="865.79119" y1="600.09014" x2="865.79119" y2="564.18441" fill="none" stroke="#000e27" stroke-linecap="round" stroke-linejoin="round" stroke-width="0.41908"/>
      <path d="M865.79119,600.09014,927.549,583.81287h.47877l.47874.47877-.47874,176.65621-24.41593,5.74492v193.891Q897.867,976.861,881.5897,983.56341a79.11914,79.11914,0,0,1-40.21444,3.83q-73.24767-16.27727-146.97413-25.85213l-78.51387-6.70241V907.44325H531.14972v47.87432h-38.7782V907.44325H407.634v47.87432l-78.03514,6.22366q-74.684,9.57486-147.93162,25.85213a86.43939,86.43939,0,0,1-40.21443-4.78743q-15.79857-6.7024-21.54345-22.02219" fill="none" stroke="#000e27" stroke-linecap="round" stroke-linejoin="round" stroke-width="0.41908"/>
      <line x1="119.90935" y1="766.69277" x2="95.49346" y2="760.94785" fill="none" stroke="#000e27" stroke-linecap="round" stroke-linejoin="round" stroke-width="0.41908"/>
      <polyline points="156.773 600.09 158.209 564.184 129.484 557.003" fill="none" stroke="#000e27" stroke-linecap="round" stroke-linejoin="round" stroke-width="0.41908"/>
      <line x1="427.74119" y1="0.225" x2="429.17743" y2="0.225" fill="none" stroke="#0070eb" stroke-linecap="round" stroke-linejoin="round" stroke-width="0.41908"/>
      <line x1="899.78195" y1="764.29906" x2="897.86697" y2="746.58556" fill="none" stroke="#000e27" stroke-linecap="round" stroke-linejoin="round" stroke-width="0.41908"/>
      <line x1="899.78195" y1="764.29906" x2="903.61187" y2="766.69277" fill="none" stroke="#000e27" stroke-linecap="round" stroke-linejoin="round" stroke-width="0.41908"/>
      <line x1="168.74114" y1="380.34703" x2="154.37885" y2="380.34703" fill="none" stroke="#000e27" stroke-linecap="round" stroke-linejoin="round" stroke-width="0.41908"/>
      <line x1="168.74114" y1="380.34703" x2="854.78009" y2="380.34703" fill="none" stroke="#000e27" stroke-linecap="round" stroke-linejoin="round" stroke-width="0.41908"/>
      <line x1="392.3142" y1="668.55043" x2="392.3142" y2="668.07167" fill="none" stroke="#0070eb" stroke-linecap="round" stroke-linejoin="round" stroke-width="0.41908"/>
      <path d="M380.82437,319.54667H642.21813" fill="none" stroke="#0058ba" stroke-linecap="round" stroke-linejoin="round" stroke-width="0.41908"/>
      <path d="M119.90935,766.69277l5.74491-20.10721,33.99079,16.27725V778.1826" fill="none" stroke="#002758" stroke-linecap="round" stroke-linejoin="round" stroke-width="0.41908"/>
    </g>
  </g>
</svg>
